<svg width="80" height="80" viewBox="0 0 80 80" fill="none" xmlns="http://www.w3.org/2000/svg">
<path fill-rule="evenodd" clip-rule="evenodd" d="M40 80C17.909 80 0 62.091 0 40C0 17.909 17.909 0 40 0C62.091 0 80 17.909 80 40C80 62.091 62.091 80 40 80ZM18.888 52.405V51.713L19.16 51.917L34.852 30.774V33.724H40.15C41.15 33.724 42.103 34.205 42.7 35.012L43.916 36.653L44.096 36.898C44.578 37.555 45.033 38.175 45.706 38.665C46.504 39.245 47.422 39.516 48.595 39.516H56.895C56.5107 41.5644 55.5175 43.4491 54.045 44.924C53.0882 45.893 51.9479 46.6618 50.6908 47.1855C49.4337 47.7091 48.0848 47.9772 46.723 47.974H38.696V62.907L18.888 52.405ZM42.584 68V51.884H46.724C48.645 51.884 50.511 51.505 52.268 50.758C53.9615 50.0379 55.4987 48.9952 56.794 47.688C58.0952 46.3822 59.1313 44.8367 59.845 43.137C60.5878 41.372 60.9686 39.4759 60.965 37.561V35.606H48.595C47.98 35.606 47.98 35.606 47.225 34.576L47.035 34.318L45.819 32.676C45.162 31.7906 44.3074 31.0707 43.3233 30.5737C42.3391 30.0767 41.2525 29.8162 40.15 29.813H38.74V18.997L18.888 45.746V27.544L40.446 15.474L63.116 28.105L65 24.685L40.442 11L15 25.245V54.765L39.963 68H42.583H42.584Z" fill="#0066FF"/>
</svg>
